<svg width="24" height="24" viewBox="0 0 24 24" fill="none" xmlns="http://www.w3.org/2000/svg">
<path fill-rule="evenodd" clip-rule="evenodd" d="M24 12C24 18.6274 18.6274 24 12 24C5.37258 24 0 18.6274 0 12C0 5.37258 5.37258 0 12 0C18.6274 0 24 5.37258 24 12ZM17.1421 21.3847L21.3847 17.1421L19.3669 15.1243C18.5576 17.0302 17.0302 18.5576 15.1243 19.3669L17.1421 21.3847ZM9.43288 19.5793C7.45316 18.909 5.82109 17.4848 4.87842 15.6484L3.24263 17.2842L7.48527 21.5269L9.43288 19.5793ZM4.63302 8.87567C5.44235 6.96973 6.96972 5.44237 8.87568 4.63305L7.24257 2.99995L2.99993 7.24259L4.63302 8.87567ZM15.6484 4.87849L17.3848 3.14209L21.6274 7.38473L19.5792 9.43295C18.9089 7.45322 17.4847 5.82116 15.6484 4.87849Z" fill="#060710"/>
<path d="M14.7689 10.6951C14.5935 10.6001 14.3679 10.6001 14.1674 10.6951L12.7637 11.4785L11.8112 11.977L10.4326 12.7604C10.2572 12.8553 10.0316 12.8553 9.83107 12.7604L8.75326 12.1432C8.57781 12.0482 8.45248 11.8583 8.45248 11.6447V10.4577C8.45248 10.2678 8.55274 10.0779 8.75326 9.9592L9.83107 9.36573C10.0065 9.27077 10.2321 9.27077 10.4326 9.36573L11.5104 9.98294C11.6859 10.0779 11.8112 10.2678 11.8112 10.4815V11.2648L12.7637 10.7426V9.93546C12.7637 9.74555 12.6634 9.55564 12.4629 9.43694L10.4577 8.32122C10.2822 8.22626 10.0567 8.22626 9.85614 8.32122L7.80078 9.46068C7.60026 9.55564 7.5 9.74555 7.5 9.93546V12.1669C7.5 12.3568 7.60026 12.5467 7.80078 12.6654L9.83107 13.7812C10.0065 13.8761 10.2321 13.8761 10.4326 13.7812L11.8112 13.0215L12.7637 12.4993L14.1423 11.7396C14.3178 11.6447 14.5433 11.6447 14.7439 11.7396L15.8217 12.3331C15.9971 12.428 16.1225 12.618 16.1225 12.8316V14.0185C16.1225 14.2085 16.0222 14.3984 15.8217 14.5171L14.7689 15.1105C14.5935 15.2055 14.3679 15.2055 14.1674 15.1105L13.0896 14.5171C12.9141 14.4221 12.7888 14.2322 12.7888 14.0185V13.2589L11.8363 13.7812V14.5645C11.8363 14.7545 11.9366 14.9444 12.1371 15.0631L14.1674 16.1788C14.3428 16.2737 14.5684 16.2737 14.7689 16.1788L16.7992 15.0631C16.9747 14.9681 17.1 14.7782 17.1 14.5645V12.3093C17.1 12.1194 16.9997 11.9295 16.7992 11.8108L14.7689 10.6951Z" fill="white"/>
</svg>
